<?xml version="1.0" encoding="UTF-8" standalone="no"?>
<!-- Created with Inkscape (http://www.inkscape.org/) -->

<svg
   width="120"
   height="120"
   viewBox="0 0 31.75 31.75"
   version="1.1"
   id="svg5"
   inkscape:version="1.1 (c4e8f9e, 2021-05-24)"
   sodipodi:docname="logo-light.svg"
   inkscape:export-filename="/Users/jess.mac/github/jess-alejo/videoskwela/app/assets/images/logo.png"
   inkscape:export-xdpi="96"
   inkscape:export-ydpi="96"
   xmlns:inkscape="http://www.inkscape.org/namespaces/inkscape"
   xmlns:sodipodi="http://sodipodi.sourceforge.net/DTD/sodipodi-0.dtd"
   xmlns="http://www.w3.org/2000/svg"
   xmlns:svg="http://www.w3.org/2000/svg">
  <sodipodi:namedview
     id="namedview7"
     pagecolor="#ffffff"
     bordercolor="#666666"
     borderopacity="1.0"
     inkscape:pageshadow="2"
     inkscape:pageopacity="0.0"
     inkscape:pagecheckerboard="0"
     inkscape:document-units="px"
     showgrid="false"
     inkscape:zoom="2.8284271"
     inkscape:cx="21.92031"
     inkscape:cy="150.08342"
     inkscape:window-width="1419"
     inkscape:window-height="809"
     inkscape:window-x="17"
     inkscape:window-y="104"
     inkscape:window-maximized="0"
     inkscape:current-layer="layer1" />
  <defs
     id="defs2" />
  <g
     inkscape:label="Layer 1"
     inkscape:groupmode="layer"
     id="layer1">
    <circle
       style="fill:none;stroke:#aa0000;stroke-width:1.5875;stroke-miterlimit:4;stroke-dasharray:none;stroke-opacity:1"
       id="path6372"
       cx="15.875"
       cy="15.875"
       r="14.474478" />
    <path
       id="path981"
       style="fill:#aa0000;stroke-width:1.00283;fill-opacity:1"
       inkscape:transform-center-x="1.0818981"
       inkscape:transform-center-y="-0.51939532"
       d="m 36.097656,22.001953 c -0.873032,-0.02117 -1.583499,0.08669 -2.095703,0.347656 -1.827501,0.931121 -3.060646,4.829571 -3.904297,9.785157 H 47.492188 L 60.027344,59.427734 70.894531,35.980469 C 63.411888,32.079993 43.705595,22.18643 36.097656,22.001953 Z m 0.855469,17.662109 21.966797,47.716797 h 2.328125 L 82.080078,42.125 c -0.8639,-0.495774 -1.668686,-0.960585 -2.460937,-1.40625 L 60.027344,83.052734 40.060547,39.664062 Z M 28.625,47.328125 c -0.273057,5.62732 -0.311864,10.575916 -0.306641,12.580078 0.01485,5.697824 0.400544,34.77922 5.878907,37.693359 2.353544,1.251936 8.876131,-0.615853 15.978515,-3.36914 z M 91.373047,47.697266 75.304688,82.667969 C 83.525597,78.390855 106.369,66.030035 106.35547,60.837891 106.34792,57.941831 99.158614,52.61975 91.373047,47.697266 Z"
       transform="scale(0.26458333)" />
  </g>
</svg>
